# Blender v2.78 (sub 0) OBJ File: 'Bobcat Assembly.blend'
# www.blender.org
mtllib Hydraulics_bottom.mtl
o Model.009
v 0.014077 -0.515364 0.745533
v 0.016111 -0.507722 0.745478
v 0.014117 -0.500070 0.745485
v 0.008562 -0.520947 0.745635
v 0.008632 -0.494459 0.745553
v 0.001046 -0.522975 0.745759
v 0.001124 -0.492390 0.745662
v -0.006463 -0.520906 0.745868
v -0.006396 -0.494420 0.745785
v -0.011951 -0.515295 0.745934
v -0.011910 -0.500001 0.745887
v -0.013942 -0.507643 0.745943
v 0.014077 0.515363 0.745533
v 0.016111 0.507724 0.745478
v 0.008562 0.520946 0.745636
v 0.014117 0.500072 0.745485
v 0.001046 0.522974 0.745759
v 0.008632 0.494460 0.745553
v -0.006463 0.520906 0.745868
v 0.001124 0.492392 0.745662
v -0.011951 0.515294 0.745934
v -0.006396 0.494419 0.745785
v -0.013942 0.507642 0.745943
v -0.011910 0.500003 0.745887
v 0.036399 -0.510025 0.020261
v 0.031678 -0.527992 -0.024364
v 0.036420 -0.510165 -0.024493
v 0.031660 -0.527854 0.020391
v 0.031768 -0.492311 -0.024477
v 0.031751 -0.492173 0.020279
v 0.033897 -0.510012 0.022656
v 0.029493 -0.526566 0.022776
v 0.018790 -0.540881 0.020630
v 0.018808 -0.541018 -0.024125
v -0.016254 -0.540926 -0.023583
v 0.001265 -0.545752 -0.023839
v -0.029057 -0.527831 -0.023427
v -0.033706 -0.509977 -0.023409
v -0.028963 -0.492150 -0.023539
v 0.018968 -0.479216 -0.024319
v -0.016096 -0.479124 -0.023778
v 0.001446 -0.474390 -0.024064
v 0.018950 -0.479078 0.020436
v 0.029578 -0.493433 0.022672
v 0.017541 -0.538661 0.022997
v 0.001245 -0.545615 0.020915
v -0.016274 -0.540786 0.021171
v -0.029075 -0.527691 0.021328
v -0.033726 -0.509839 0.021345
v -0.028981 -0.492010 0.021216
v -0.016114 -0.478984 0.020977
v 0.001432 -0.474250 0.020691
v 0.017692 -0.481274 0.022818
v 0.001251 -0.543059 0.023263
v -0.015018 -0.538575 0.023500
v -0.026903 -0.526416 0.023646
v -0.031223 -0.509839 0.023661
v -0.026816 -0.493283 0.023542
v -0.014869 -0.481187 0.023319
v 0.001423 -0.476793 0.023055
v 0.033676 -0.508002 0.669827
v 0.029269 -0.524559 0.669946
v 0.029356 -0.491426 0.669842
v 0.037422 -0.507954 0.688612
v 0.032509 -0.526421 0.688745
v 0.017323 -0.536654 0.670169
v 0.017468 -0.479267 0.669987
v 0.032608 -0.489464 0.688630
v 0.037417 -0.507903 0.705101
v 0.032505 -0.526370 0.705235
v 0.019182 -0.539911 0.688993
v 0.001030 -0.541049 0.670433
v 0.001202 -0.474783 0.670225
v 0.019351 -0.475902 0.688793
v 0.032600 -0.489413 0.705119
v 0.019177 -0.539860 0.705483
v 0.001013 -0.544814 0.689289
v -0.015236 -0.536567 0.670671
v -0.015087 -0.479180 0.670491
v 0.001203 -0.470903 0.689057
v 0.019340 -0.475851 0.705281
v 0.001005 -0.544763 0.705778
v -0.017132 -0.539814 0.689555
v -0.027124 -0.524408 0.670816
v -0.027040 -0.491275 0.670712
v -0.016966 -0.475806 0.689354
v 0.001199 -0.470850 0.705546
v -0.017139 -0.539763 0.706043
v -0.030389 -0.526252 0.689717
v -0.031444 -0.507829 0.670832
v -0.030296 -0.489296 0.689600
v -0.016974 -0.475755 0.705842
v -0.030396 -0.526201 0.706206
v -0.035206 -0.507760 0.689734
v -0.030304 -0.489245 0.706088
v -0.035216 -0.507709 0.706222
v 0.026007 -0.522536 0.702967
v 0.029906 -0.507890 0.702862
v 0.026084 -0.493227 0.702875
v 0.029898 -0.507847 0.716994
v 0.026000 -0.522493 0.717099
v 0.015439 -0.533236 0.703164
v 0.015570 -0.482470 0.703005
v 0.026076 -0.493183 0.717007
v 0.015434 -0.533193 0.717297
v 0.001026 -0.537123 0.703398
v 0.001177 -0.478504 0.703213
v 0.015565 -0.482427 0.717138
v 0.001021 -0.537080 0.717531
v -0.013364 -0.533160 0.703609
v -0.013233 -0.482391 0.703449
v 0.001172 -0.478461 0.717346
v -0.013372 -0.533114 0.717741
v -0.023878 -0.522401 0.703738
v -0.023802 -0.493091 0.703646
v -0.013238 -0.482348 0.717582
v -0.023886 -0.522358 0.717870
v -0.027700 -0.507737 0.703751
v -0.023809 -0.493048 0.717777
v -0.027708 -0.507694 0.717883
v 0.038655 -0.507783 0.745126
v 0.033581 -0.526972 0.716997
v 0.038665 -0.507870 0.716859
v 0.033571 -0.526885 0.745263
v 0.033682 -0.488743 0.716877
v 0.033671 -0.488653 0.745143
v 0.019784 -0.540842 0.745520
v -0.017786 -0.540740 0.746099
v 0.000988 -0.545913 0.745826
v -0.031502 -0.526711 0.746267
v -0.036485 -0.507582 0.746285
v -0.031402 -0.488480 0.746147
v 0.019956 -0.474625 0.745311
v -0.017614 -0.474523 0.745891
v 0.001182 -0.469452 0.745584
v 0.019794 -0.540929 0.717253
v 0.019969 -0.474711 0.717046
v 0.001195 -0.469539 0.717319
v -0.017601 -0.474612 0.717625
v -0.031389 -0.488569 0.717881
v -0.036472 -0.507671 0.718019
v -0.031489 -0.526798 0.718001
v -0.017773 -0.540827 0.717833
v 0.000998 -0.546000 0.717560
v 0.031678 0.527994 -0.024364
v 0.036399 0.510027 0.020261
v 0.036420 0.510164 -0.024493
v 0.031660 0.527854 0.020391
v -0.016096 0.479123 -0.023778
v 0.018968 0.479218 -0.024319
v 0.001446 0.474389 -0.024064
v -0.028963 0.492149 -0.023539
v 0.031768 0.492313 -0.024476
v -0.033706 0.509978 -0.023409
v -0.029057 0.527831 -0.023427
v -0.016254 0.540926 -0.023583
v 0.018808 0.541020 -0.024125
v 0.001265 0.545754 -0.023839
v 0.018790 0.540880 0.020630
v 0.033897 0.510011 0.022656
v 0.029493 0.526568 0.022776
v 0.031751 0.492172 0.020279
v 0.018950 0.479080 0.020436
v 0.001432 0.474251 0.020691
v -0.016114 0.478985 0.020977
v -0.028981 0.492011 0.021216
v -0.033726 0.509838 0.021345
v -0.029075 0.527693 0.021328
v -0.016274 0.540788 0.021171
v 0.001245 0.545614 0.020915
v 0.017541 0.538663 0.022997
v 0.029578 0.493435 0.022672
v 0.017692 0.481276 0.022818
v 0.001423 0.476792 0.023055
v -0.014869 0.481187 0.023319
v -0.026816 0.493285 0.023542
v -0.031223 0.509838 0.023661
v -0.026903 0.526417 0.023646
v -0.015018 0.538576 0.023500
v 0.001251 0.543058 0.023263
v 0.033676 0.508004 0.669827
v 0.029269 0.524558 0.669946
v 0.017323 0.536653 0.670169
v 0.037422 0.507956 0.688612
v 0.032509 0.526420 0.688745
v 0.029357 0.491425 0.669842
v 0.001030 0.541050 0.670433
v 0.019182 0.539913 0.688993
v 0.037418 0.507905 0.705101
v 0.032505 0.526369 0.705235
v 0.032608 0.489463 0.688630
v 0.017468 0.479266 0.669987
v -0.015236 0.536567 0.670671
v 0.001013 0.544815 0.689289
v 0.019178 0.539859 0.705483
v 0.032600 0.489412 0.705119
v 0.019351 0.475902 0.688793
v 0.001202 0.474784 0.670225
v -0.027124 0.524408 0.670816
v -0.017132 0.539813 0.689555
v 0.001005 0.544764 0.705778
v 0.019341 0.475851 0.705281
v 0.001203 0.470902 0.689057
v -0.015087 0.479179 0.670491
v -0.031444 0.507831 0.670832
v -0.030389 0.526252 0.689717
v -0.017139 0.539765 0.706043
v 0.001199 0.470851 0.705546
v -0.016966 0.475805 0.689354
v -0.027040 0.491274 0.670712
v -0.035206 0.507762 0.689734
v -0.030396 0.526201 0.706206
v -0.016973 0.475754 0.705842
v -0.030296 0.489297 0.689600
v -0.035216 0.507711 0.706222
v -0.030304 0.489244 0.706088
v 0.026008 0.522535 0.702967
v 0.029906 0.507892 0.702862
v 0.015439 0.533235 0.703164
v 0.029898 0.507849 0.716994
v 0.026000 0.522492 0.717099
v 0.026084 0.493226 0.702875
v 0.001027 0.537125 0.703398
v 0.015434 0.533192 0.717297
v 0.026076 0.493182 0.717007
v 0.015570 0.482469 0.703005
v -0.013364 0.533159 0.703609
v 0.001022 0.537079 0.717531
v 0.015565 0.482426 0.717138
v 0.001177 0.478503 0.703213
v -0.023878 0.522403 0.703738
v -0.013372 0.533116 0.717741
v 0.001172 0.478460 0.717346
v -0.013233 0.482393 0.703449
v -0.027700 0.507736 0.703751
v -0.023886 0.522359 0.717870
v -0.013238 0.482349 0.717582
v -0.023802 0.493093 0.703646
v -0.027708 0.507693 0.717883
v -0.023809 0.493050 0.717777
v 0.033582 0.526974 0.716997
v 0.038655 0.507785 0.745126
v 0.038665 0.507872 0.716859
v 0.033571 0.526884 0.745263
v 0.019784 0.540842 0.745520
v 0.019794 0.540928 0.717253
v 0.033672 0.488655 0.745143
v -0.031501 0.526711 0.746267
v -0.017786 0.540742 0.746099
v 0.000988 0.545912 0.745826
v 0.019956 0.474624 0.745311
v -0.017614 0.474524 0.745891
v 0.001182 0.469453 0.745584
v -0.031402 0.488481 0.746147
v -0.036485 0.507583 0.746285
v 0.033682 0.488742 0.716877
v 0.000998 0.546001 0.717560
v 0.019969 0.474713 0.717046
v -0.017773 0.540829 0.717833
v -0.031488 0.526800 0.718001
v -0.036472 0.507670 0.718019
v -0.031389 0.488568 0.717881
v -0.017601 0.474611 0.717625
v 0.001195 0.469540 0.717319
vn 0.6511 0.3793 -0.6574
vn 0.6626 0.3724 0.6497
vn 0.7615 -0.0001 0.6482
vn 0.7514 0.0040 -0.6598
vn 0.0024 -0.9246 0.3809
vn -0.0100 -0.7598 -0.6500
vn 0.3740 -0.6579 -0.6537
vn 0.4697 -0.7978 0.3778
vn -0.3920 0.6532 -0.6478
vn -0.6646 0.3731 -0.6474
vn -0.6531 0.3717 0.6597
vn -0.3775 0.6519 0.6577
vn -0.7861 -0.4461 0.4277
vn -0.9050 0.0037 0.4254
vn -0.9254 0.0036 0.3790
vn -0.8041 -0.4566 0.3807
vn 0.0094 0.9051 0.4250
vn 0.0073 0.9269 0.3752
vn -0.4617 0.8030 0.3768
vn -0.4504 0.7848 0.4256
vn -0.8640 0.4929 -0.1021
vn -0.8641 0.4935 -0.0985
vn -0.5018 0.8591 -0.1005
vn -0.5021 0.8585 -0.1040
vn -0.0117 -0.6480 -0.7616
vn 0.0164 -0.4936 0.8695
vn 0.2617 -0.4223 0.8678
vn 0.3750 -0.6543 -0.6567
vn -0.8017 0.4632 0.3778
vn -0.7838 0.4528 0.4249
vn 0.3920 -0.6532 0.6478
vn 0.3774 -0.6518 -0.6577
vn 0.6530 -0.3717 -0.6598
vn 0.6646 -0.3731 0.6474
vn 0.7532 0.0040 -0.6577
vn 0.6534 -0.3741 -0.6580
vn 0.4362 -0.2416 0.8668
vn 0.4983 -0.0014 0.8670
vn 0.6531 0.3717 -0.6598
vn 0.8089 0.4562 0.3709
vn 0.9286 -0.0012 0.3710
vn 0.7514 -0.0040 -0.6598
vn 0.3740 0.6579 -0.6537
vn -0.0100 0.7599 -0.6500
vn 0.0060 0.7558 0.6547
vn 0.3885 0.6512 0.6518
vn -0.4864 0.0041 0.8737
vn -0.7598 -0.0001 -0.6502
vn -0.6623 0.3701 -0.6514
vn -0.4185 0.2517 0.8726
vn -0.4186 -0.2518 0.8726
vn -0.4865 -0.0041 0.8737
vn -0.6602 -0.0040 0.7510
vn -0.5724 -0.3346 0.7486
vn 0.0012 0.9948 -0.1014
vn -0.3284 0.5811 0.7446
vn 0.0110 0.6713 0.7410
vn 0.0165 0.4936 0.8695
vn -0.2338 0.4316 0.8712
vn -0.3911 0.6487 -0.6528
vn -0.0100 0.7559 -0.6546
vn -0.3945 -0.6507 -0.6488
vn -0.2360 -0.4250 0.8739
vn 0.0139 -0.4884 0.8725
vn -0.0141 -0.7598 -0.6500
vn 0.3479 -0.5759 0.7398
vn 0.5043 -0.8576 -0.1006
vn 0.8660 -0.4902 -0.0987
vn 0.5865 -0.3280 0.7405
vn -0.4617 -0.8030 0.3767
vn -0.3886 -0.6511 -0.6518
vn -0.0061 -0.7559 -0.6547
vn 0.0073 -0.9270 0.3750
vn 0.8660 0.4902 -0.0987
vn 0.5043 0.8576 -0.1006
vn 0.3479 0.5759 0.7398
vn 0.5865 0.3280 0.7405
vn 0.6707 0.0005 0.7417
vn 0.9953 -0.0029 -0.0968
vn 0.0012 -0.9948 -0.1014
vn 0.0011 -0.9945 -0.1047
vn 0.5044 -0.8572 -0.1037
vn 0.2595 -0.4183 0.8704
vn 0.3090 -0.5561 -0.7715
vn 0.6707 -0.0005 0.7417
vn 0.5848 0.3265 0.7425
vn 0.4350 0.2384 0.8683
vn -0.5018 -0.8591 -0.1005
vn -0.5021 -0.8585 -0.1040
vn 0.5044 0.8572 -0.1036
vn 0.0011 0.9945 -0.1047
vn 0.8634 0.4953 -0.0957
vn 0.4998 0.8609 -0.0953
vn 0.3450 0.5730 0.7434
vn -0.5752 -0.3199 -0.7529
vn -0.4198 -0.2441 0.8741
vn -0.0041 -0.9951 -0.0985
vn 0.0047 -0.9025 0.4306
vn 0.4616 -0.7773 0.4274
vn 0.4999 -0.8604 -0.0983
vn 0.6530 0.3717 -0.6598
vn 0.3775 0.6519 -0.6577
vn 0.3919 0.6532 0.6478
vn 0.6646 0.3731 0.6474
vn 0.3774 0.6518 -0.6577
vn -0.0061 0.7558 -0.6547
vn 0.4739 0.7977 0.3728
vn -0.8641 -0.4929 -0.1021
vn -0.7838 -0.4528 0.4249
vn -0.4505 -0.7849 0.4254
vn 0.3740 -0.6579 -0.6536
vn -0.0101 -0.7599 -0.6500
vn -0.3920 -0.6532 -0.6478
vn -0.6645 -0.3731 -0.6474
vn -0.7614 -0.0000 -0.6482
vn 0.7615 0.0000 0.6482
vn 0.4616 0.7774 0.4272
vn 0.0047 0.9026 0.4305
vn -0.0041 0.9951 -0.0985
vn 0.5000 0.8604 -0.0983
vn 0.6511 -0.3792 -0.6575
vn 0.6514 -0.3816 -0.6557
vn 0.7532 -0.0040 -0.6578
vn 0.6534 0.3742 -0.6580
vn 0.3750 0.6543 -0.6567
vn -0.6626 0.3725 -0.6498
vn -0.3886 0.6511 -0.6519
vn -0.0061 0.7559 -0.6547
vn -0.6646 -0.3731 -0.6474
vn -0.4659 -0.7982 0.3818
vn -0.0040 0.9954 -0.0952
vn -0.9950 0.0022 -0.1001
vn -0.5063 -0.8571 -0.0952
vn -0.5066 -0.8565 -0.0987
vn -0.0040 -0.9954 -0.0952
vn 0.8659 -0.4897 -0.1015
vn -0.6511 -0.3792 0.6574
vn -0.7515 -0.0040 0.6597
vn -0.6626 -0.3724 -0.6497
vn -0.4545 0.7799 0.4303
vn -0.4659 0.7982 0.3818
vn -0.8041 0.4566 0.3807
vn -0.7861 0.4461 0.4277
vn -0.3739 -0.6579 0.6536
vn -0.3886 -0.6512 -0.6518
vn -0.0061 -0.7558 -0.6547
vn 0.0101 -0.7599 0.6500
vn 0.7918 0.4440 0.4194
vn 0.4657 0.7776 0.4223
vn 0.8659 0.4897 -0.1015
vn -0.9254 -0.0036 0.3790
vn 0.2595 0.4183 0.8704
vn 0.3715 0.6603 -0.6526
vn 0.6514 0.3816 -0.6557
vn 0.3886 -0.6512 0.6518
vn 0.6627 -0.3724 0.6497
vn 0.9950 -0.0029 -0.0994
vn 0.9080 -0.0010 0.4190
vn 0.0094 -0.9052 0.4248
vn 0.4350 -0.2384 0.8683
vn 0.4983 0.0014 0.8670
vn -0.9953 -0.0022 -0.0966
vn -0.5740 0.3269 0.7508
vn -0.8666 0.4896 -0.0955
vn -0.8641 -0.4935 -0.0985
vn -0.3284 -0.5811 0.7446
vn 0.4739 -0.7978 0.3728
vn -0.5066 0.8565 -0.0986
vn 0.7894 0.4454 0.4223
vn 0.8634 0.4948 -0.0984
vn -0.5740 -0.3269 0.7508
vn -0.6602 0.0040 0.7510
vn -0.9953 0.0022 -0.0966
vn -0.8667 -0.4896 -0.0955
vn -0.8017 -0.4632 0.3778
vn 0.9953 0.0029 -0.0968
vn -0.3912 -0.6486 -0.6529
vn -0.2339 -0.4316 0.8712
vn -0.2360 0.4251 0.8738
vn -0.4198 0.2441 0.8741
vn -0.6642 0.3706 -0.6492
vn -0.3351 0.5478 -0.7665
vn -0.8666 -0.4890 -0.0990
vn 0.0110 -0.6713 0.7411
vn -0.0140 0.7598 -0.6500
vn 0.6511 0.3792 -0.6574
vn 0.3740 0.6579 -0.6536
vn 0.4698 0.7979 0.3778
vn 0.8065 0.4580 0.3738
vn -0.5723 0.3346 0.7486
vn 0.0099 0.7599 0.6500
vn -0.3315 -0.5748 0.7482
vn 0.0074 -0.6668 0.7452
vn -0.6626 0.3724 -0.6497
vn -0.3775 -0.6518 0.6577
vn 0.0060 -0.7558 0.6547
vn 0.0024 0.9246 0.3808
vn 0.4362 0.2416 0.8668
vn 0.2617 0.4224 0.8678
vn 0.9950 0.0029 -0.0994
vn 0.7918 -0.4439 0.4195
vn 0.9080 0.0010 0.4190
vn 0.5849 -0.3265 0.7425
vn 0.8634 -0.4953 -0.0957
vn -0.5064 0.8570 -0.0952
vn 0.8065 -0.4580 0.3738
vn 0.6511 -0.3792 -0.6574
vn 0.7894 -0.4454 0.4224
vn 0.8634 -0.4948 -0.0984
vn -0.8666 0.4891 -0.0990
vn -0.6531 -0.3717 0.6597
vn -0.7515 0.0040 0.6597
vn 0.4997 -0.8609 -0.0953
vn 0.9286 0.0012 0.3710
vn -0.7598 0.0000 -0.6502
vn -0.6623 -0.3701 -0.6514
vn -0.3315 0.5748 0.7481
vn 0.4657 -0.7776 0.4223
vn -0.3741 0.6579 0.6536
vn -0.9950 -0.0022 -0.1001
vn -0.6511 0.3792 0.6574
vn 0.0154 0.0031 0.9998
vn 0.0156 0.0031 0.9998
vn 0.0074 0.6668 0.7452
vn 0.0153 -0.0030 0.9999
vn 0.0153 -0.0030 0.9998
vn 0.0155 -0.0032 0.9998
vn 0.8089 -0.4562 0.3709
vn -0.9050 -0.0037 0.4254
vn -0.4545 -0.7798 0.4303
vn 0.3450 -0.5731 0.7433
vn 0.0139 0.4883 0.8725
usemtl black.002
s 1
f 241//1 244//2 242//3 243//4
f 46//5 36//6 34//7 33//8
f 259//9 260//10 248//11 249//12
f 56//13 57//14 49//15 48//16
f 60//17 52//18 51//19 59//20
f 85//21 91//22 86//23 79//24
f 233//25 230//26 226//27 229//28
f 59//20 51//19 50//29 58//30
f 251//31 258//32 256//33 247//34
f 220//35 225//36 222//37 218//38
f 29//39 30//40 25//41 27//42
f 246//43 257//44 250//45 245//46
f 257//44 259//9 249//12 250//45
f 118//47 120//48 119//49 115//50
f 238//51 235//52 215//53 216//54
f 80//55 86//23 92//56 87//57
f 241//1 246//43 245//46 244//2
f 107//58 111//59 116//60 112//61
f 113//62 110//63 106//64 109//65
f 202//66 197//67 191//68 196//69
f 165//70 149//71 151//72 164//73
f 68//74 74//75 81//76 75//77
f 68//74 75//77 69//78 64//79
f 203//80 198//81 192//82 197//67
f 109//65 106//64 102//83 105//84
f 189//85 190//86 217//87 218//38
f 209//88 204//89 198//81 203//80
f 107//58 87//57 92//56 111//59
f 67//90 73//91 80//55 74//75
f 185//92 188//93 195//94 190//86
f 117//95 114//96 110//63 113//62
f 72//97 54//98 45//99 66//100
f 125//101 137//102 133//103 126//104
f 40//105 42//106 52//18 43//107
f 210//108 176//109 175//110 204//89
f 29//39 40//105 43//107 30//40
f 109//65 105//84 136//111 144//112 143//113 142//114 141//115 117//95 113//62
f 125//101 126//104 121//116 123//42
f 171//117 180//118 187//119 183//120
f 125//101 123//42 122//121 136//111 105//84 101//122 100//123 104//124 108//125 112//61 116//60 119//49 120//48 117//95 141//115 140//126 139//127 138//128 137//102
f 48//16 37//129 35//113 47//130
f 183//120 187//119 194//131 188//93
f 57//14 90//132 85//21 58//30
f 83//133 78//134 72//97 77//135
f 197//67 192//82 186//136 191//68
f 254//137 255//138 261//115 262//139
f 179//140 169//141 168//142 178//143
f 252//144 263//145 264//146 253//147
f 44//148 53//149 67//90 63//150
f 154//115 167//151 168//142 155//10
f 48//16 49//15 38//115 37//129
f 217//87 219//152 224//153 221//154
f 127//155 136//111 122//121 124//156
f 44//148 63//150 61//157 31//158
f 217//87 221//154 220//35 218//38
f 60//17 59//20 79//24 73//91
f 204//89 175//110 174//159 198//81
f 100//123 101//122 97//160 98//161
f 174//159 175//110 165//70 164//73
f 211//162 215//53 212//163 206//164
f 216//54 214//165 209//88 213//166
f 164//73 151//72 150//32 163//167
f 74//75 80//55 87//57 81//76
f 180//118 179//140 193//168 187//119
f 161//169 171//117 183//120 182//170
f 93//171 96//172 94//173 89//174
f 166//175 167//151 154//115 152//139
f 185//92 190//86 189//85 184//176
f 114//96 118//47 96//172 93//171
f 189//85 196//69 191//68 184//176
f 237//177 234//178 230//26 233//25
f 227//179 231//180 236//181 232//182
f 89//174 94//173 90//132 84//183
f 213//166 209//88 203//80 208//184
f 259//9 257//44 246//43 241//1 243//4 256//33 258//32 264//146 263//145 233//25 229//28 225//36 220//35 221//154 224//153 228//185 232//182
f 145//186 157//187 159//188 148//189
f 43//107 53//149 44//148 30//40
f 94//173 96//172 95//190 91//22
f 117//95 120//48 118//47 114//96
f 137//102 138//128 135//191 133//103
f 202//66 226//27 230//26 208//184
f 106//64 110//63 88//192 82//193
f 42//106 41//127 51//19 52//18
f 41//127 39//194 50//29 51//19
f 128//195 143//113 144//112 129//196
f 157//187 158//44 170//197 159//188
f 208//184 203//80 197//67 202//66
f 99//198 103//199 108//125 104//124
f 83//133 89//174 84//183 78//134
f 184//176 191//68 186//136 181//200
f 53//149 60//17 73//91 67//90
f 88//192 83//133 77//135 82//193
f 75//77 99//198 98//161 69//78
f 181//200 186//136 172//201 160//202
f 69//78 70//203 65//204 64//79
f 175//110 176//109 166//175 165//70
f 187//119 193//168 200//205 194//131
f 229//28 226//27 222//37 225//36
f 25//41 28//206 26//207 27//42
f 33//8 34//7 26//207 28//206
f 99//198 104//124 100//123 98//161
f 66//100 45//99 32//208 62//209
f 199//210 206//164 200//205 193//168
f 86//23 91//22 95//190 92//56
f 103//199 107//58 112//61 108//125
f 69//78 98//161 97//160 70//203
f 111//59 92//56 95//190 115//50
f 130//211 131//212 141//115 142//114
f 77//135 72//97 66//100 71//213
f 145//186 148//189 146//214 147//4
f 52//18 60//17 53//149 43//107
f 261//115 260//10 259//9 232//182 236//181 239//215 240//216 237//177 233//25 263//145 262//139
f 227//179 207//217 212//163 231//180
f 61//157 62//209 32//208 31//158
f 173//218 174//159 164//73 163//167
f 138//128 139//127 134//219 135//191
f 205//220 211//162 206//164 199//210
f 29//39 27//42 26//207 34//7 36//6 35//113 37//129 38//115 39//194 41//127 42//106 40//105
f 84//183 90//132 57//14 56//13
f 64//79 65//204 62//209 61//157
f 141//115 131//212 132//221 140//126
f 130//211 128//195 129//196 127//155 124//156 6//222 8//222 10//222 12//222 11//222 9//222 7//222 126//104 133//103 135//191 134//219 132//221 131//212
f 5//223 3//223 2//223 1//223 4//223 6//222 124//156 121//116 126//104 7//222
f 149//71 152//139 154//115 155//10 156//9 158//44 157//187 145//186 147//4 153//33 150//32 151//72
f 31//158 32//208 28//206 25//41
f 194//131 200//205 207//217 201//224
f 23//225 21//225 19//225 17//226 244//2 245//46 250//45 249//12 248//11 255//138 254//137 20//227 22//225 24//225
f 15//227 13//227 14//227 16//227 18//227 20//227 254//137 252//144 253//147 251//31 247//34 242//3 244//2 17//226
f 160//202 172//201 162//228 146//214
f 234//178 238//51 216//54 213//166
f 63//150 67//90 74//75 68//74
f 209//88 214//165 210//108 204//89
f 192//82 173//218 172//201 186//136
f 240//216 238//51 234//178 237//177
f 71//213 66//100 62//209 65//204
f 177//229 205//220 199//210 178//143
f 30//40 44//148 31//158 25//41
f 84//183 56//13 55//230 78//134
f 129//196 144//112 136//111 127//155
f 73//91 79//24 86//23 80//55
f 163//167 150//32 153//33 162//228
f 76//231 71//213 65//204 70//203
f 196//69 222//37 226//27 202//66
f 253//147 264//146 258//32 251//31
f 240//216 239//215 235//52 238//51
f 223//232 201//224 207//217 227//179
f 182//170 185//92 184//176 181//200
f 70//203 97//160 102//83 76//231
f 178//143 168//142 167//151 177//229
f 110//63 114//96 93//171 88//192
f 161//169 182//170 181//200 160//202
f 81//76 87//57 107//58 103//199
f 189//85 218//38 222//37 196//69
f 190//86 195//94 219//152 217//87
f 182//170 183//120 188//93 185//92
f 214//165 211//162 205//220 210//108
f 223//232 227//179 232//182 228//185
f 82//193 77//135 71//213 76//231
f 90//132 94//173 91//22 85//21
f 219//152 223//232 228//185 224//153
f 121//116 124//156 122//121 123//42
f 235//52 231//180 212//163 215//53
f 57//14 58//30 50//29 49//15
f 230//26 234//178 213//166 208//184
f 146//214 162//228 153//33 147//4
f 55//230 56//13 48//16 47//130
f 54//98 55//230 47//130 46//5
f 63//150 68//74 64//79 61//157
f 176//109 177//229 167//151 166//175
f 47//130 35//113 36//6 46//5
f 180//118 170//197 169//141 179//140
f 198//81 174//159 173//218 192//82
f 235//52 239//215 236//181 231//180
f 261//115 255//138 248//11 260//10
f 45//99 54//98 46//5 33//8
f 188//93 194//131 201//224 195//94
f 75//77 81//76 103//199 99//198
f 156//9 155//10 168//142 169//141
f 216//54 215//53 211//162 214//165
f 170//197 180//118 171//117 159//188
f 242//3 247//34 256//33 243//4
f 38//115 49//15 50//29 39//194
f 158//44 156//9 169//141 170//197
f 139//127 140//126 132//221 134//219
f 32//208 45//99 33//8 28//206
f 254//137 262//139 263//145 252//144
f 93//171 89//174 83//133 88//192
f 130//211 142//114 143//113 128//195
f 172//201 173//218 163//167 162//228
f 105//84 102//83 97//160 101//122
f 148//189 161//169 160//202 146//214
f 111//59 115//50 119//49 116//60
f 166//175 152//139 149//71 165//70
f 195//94 201//224 223//232 219//152
f 59//20 58//30 85//21 79//24
f 159//188 171//117 161//169 148//189
f 200//205 206//164 212//163 207//217
f 210//108 205//220 177//229 176//109
f 179//140 178//143 199//210 193//168
f 78//134 55//230 54//98 72//97
f 76//231 102//83 106//64 82//193
f 115//50 95//190 96//172 118//47
